<svg width="256" height="256" viewBox="0 0 256 256" fill="none" xmlns="http://www.w3.org/2000/svg">
<rect x="8" y="8" width="240" height="240" rx="120" fill="white"/>
<rect x="8" y="8" width="240" height="240" rx="120" stroke="#FF0000" stroke-width="16"/>
<path fill-rule="evenodd" clip-rule="evenodd" d="M128 87.7496C113.605 70.9734 89.5502 65.7888 71.5138 81.1508C53.4774 96.5127 50.9382 122.197 65.1022 140.366C76.8787 155.471 112.518 187.331 124.199 197.643C125.506 198.797 126.159 199.374 126.922 199.6C127.586 199.798 128.314 199.798 128.98 199.6C129.742 199.374 130.395 198.797 131.702 197.643C143.383 187.331 179.022 155.471 190.799 140.366C204.963 122.197 202.734 96.3511 184.387 81.1508C166.041 65.9504 142.395 70.9734 128 87.7496Z" stroke="#FF0000" stroke-width="16" stroke-linecap="round" stroke-linejoin="round"/>
</svg>
